<svg xmlns="http://www.w3.org/2000/svg" viewBox="0 0 256 256" role="img" aria-label="CR monogram">
  <defs>
    <linearGradient id="bg" x1="0%" y1="0%" x2="100%" y2="100%">
      <stop offset="0%" stop-color="#171717" />
      <stop offset="100%" stop-color="#3a3a3a" />
    </linearGradient>
    <linearGradient id="gold" x1="15%" y1="15%" x2="85%" y2="85%">
      <stop offset="0%" stop-color="#f4d8a4" />
      <stop offset="35%" stop-color="#c9965d" />
      <stop offset="70%" stop-color="#8b5e34" />
      <stop offset="100%" stop-color="#f0c98d" />
    </linearGradient>
    <filter id="shadow" x="-20%" y="-20%" width="140%" height="140%">
      <feDropShadow dx="0" dy="8" stdDeviation="10" flood-color="#000000" flood-opacity="0.4" />
    </filter>
  </defs>
  <rect width="256" height="256" rx="54" fill="url(#bg)" />
  <g fill="none" stroke="url(#gold)" stroke-linecap="round" stroke-linejoin="round" filter="url(#shadow)">
    <path d="M146 54c-18-13-38-19-60-19-47 0-83 38-83 92s36 92 83 92c22 0 43-6 60-19" stroke-width="22"/>
    <path d="M150 53h38c39 0 67 26 67 62 0 31-21 54-51 60l53 59" stroke-width="22"/>
    <path d="M150 53v83" stroke-width="22"/>
    <path d="M150 136h48" stroke-width="22"/>
  </g>
</svg>
